<svg  viewBox="0 0 230 5" xmlns="http://www.w3.org/2000/svg">
    <style>
        .wire { fill: url(#wire)}
    </style>
    <path id="link9" class="wire" d="M 227 0 H 2.5 A 1 1 0 0 0 2.5 5 H 227 A 1 1 0 0 0 227 0 Z" />
    <path id="link8" class="wire" d="M 201 0 H 2.5 A 1 1 0 0 0 2.5 5 H 201 A 1 1 0 0 0 201 0 Z" />
    <path id="link7" class="wire" d="M 176 0 H 2.5 A 1 1 0 0 0 2.5 5 H 176 A 1 1 0 0 0 176 0 Z" />
    <path id="link6" class="wire" d="M 150 0 H 2.5 A 1 1 0 0 0 2.5 5 H 150 A 1 1 0 0 0 150 0 Z" />
    <path id="link5" class="wire" d="M 125 0 H 2.5 A 1 1 0 0 0 2.5 5 H 125 A 1 1 0 0 0 125 0 Z" />
    <path id="link4" class="wire" d="M 99 0 H 2.5 A 1 1 0 0 0 2.5 5 H 99 A 1 1 0 0 0 99 0 Z" />
    <path id="link3" class="wire" d="M 74 0 H 2.5 A 1 1 0 0 0 2.5 5 H 74 A 1 1 0 0 0 74 0 Z" />
    <path id="link2" class="wire" d="M 48 0 H 2.5 A 1 1 0 0 0 2.5 5 H 48 A 1 1 0 0 0 48 0 Z" />
    <path id="link1" class="wire" d="M 23 0 H 2.5 A 1 1 0 0 0 2.5 5 H 23 A 1 1 0 0 0 23 0 Z" />
    <defs>
        <lineargradient id="wire" gradientTransform="rotate(90)">
            <stop offset="0" style="stop-color:rgb(153,153,153)" />
            <stop offset="0.33" style="stop-color:rgb(243,243,243)" />
            <stop offset="1" style="stop-color:rgb(153,153,153)" />
        </lineargradient>
    </defs>
</svg>
