<svg viewBox="0 0 40 40" xmlns="http://www.w3.org/2000/svg">
	<style>
		#vertical-resistor-top circle, #vertical-resistor-right circle, #vertical-resistor-bottom circle, #vertical-resistor-left circle {fill:url(#res-top)}
		#vertical-resistor-top path    {fill:url(#bent-wire-top)}
 		#vertical-resistor-right path  {fill:url(#bent-wire-right)}
  		#vertical-resistor-bottom path {fill:url(#bent-wire-bottom)}
   		#vertical-resistor-left path   {fill:url(#bent-wire-left)}
	</style>
	<g id="vertical-resistor-top">
        <circle cx="12" cy="28" r="12"/>
        <path d="M 14.5 24.5 V 2.5 A 1 1 0 0 0 9.5 2.5 V 24.5 C 9.5 27 9.5 31 12 31 C 14.5 31 14.5 27 14.5 24.5 Z"/>
    </g>
	<g id="vertical-resistor-right">
  		<circle class="res" r="12" cx="12" cy="12"/>
    	<path class="wire" d="M 33.5 9.5 H 12 A 1 1 0 0 0 12 14.5 H 33.5 C 36.5 14.5 39.5 14.5 39.5 12 C 39.5 9.5 36.5 9.5 33.5 9.5 Z"/>
	</g>
	<g id="vertical-resistor-bottom">
    	<circle cx="12" cy="12" r="12"/>
    	<path d="M 14.5 12 A 1 1 0 0 0 9.5 12 V 34 C 9.5 37 9.5 40 12 40 C 14.5 40 14.5 37 14.5 34 V 12 Z" />
	</g>
	<g id="vertical-resistor-left">
		<circle class="res" r="12" cx="27.5" cy="12"/>
		<path class="wire" d="M 27.5 14.5 A 1 1 0 0 0 28 9.5 H 6 C 3 9.5 0 9.5 0 12 C 0 14.5 3 14.5 6 14.5 H 27.5 Z"/>
	</g>
    <defs>
        <radialGradient id="res-top">
			<stop offset="0" style="stop-color:rgb(246,201,111)"/>
			<stop offset="0.3" style="stop-color:rgb(220,148,14)"/>
			<stop offset="1" style="stop-color:rgb(246,200,109)"/>
		</radialGradient>  
		<linearGradient id="bent-wire-top" gradientTransform="rotate(90)">
			<stop offset="0" style="stop-color:rgb(153,153,153)"/>
			<stop offset="0.1" style="stop-color:rgb(192,192,192)"/>
			<stop offset="0.15" style="stop-color:rgb(207,207,207)"/>
			<stop offset="0.75" style="stop-color:rgb(243,243,243)"/>
			<stop offset="0.9" style="stop-color:rgb(198,198,198)"/>
			<stop offset="1" style="stop-color:rgb(153,153,153)"/>
		</linearGradient>
 		<linearGradient id="bent-wire-right">
 			<stop offset="0" style="stop-color:rgb(153,153,153)"/>
 			<stop offset="0.1" style="stop-color:rgb(198,198,198)"/>
 			<stop offset="0.15" style="stop-color:rgb(243,243,243)"/>
 			<stop offset="0.75" style="stop-color:rgb(207,207,207)"/>		
 			<stop offset="0.9" style="stop-color:rgb(192,192,192)"/>
 			<stop offset="1" style="stop-color:rgb(153,153,153)"/>
 		</linearGradient>
  		<linearGradient id="bent-wire-bottom" gradientTransform="rotate(90)">
  			<stop offset="0" style="stop-color:rgb(153,153,153)"/>
  			<stop offset="0.1" style="stop-color:rgb(198,198,198)"/>
  			<stop offset="0.15" style="stop-color:rgb(243,243,243)"/>
  			<stop offset="0.75" style="stop-color:rgb(207,207,207)"/>		
  			<stop offset="0.9" style="stop-color:rgb(192,192,192)"/>
  			<stop offset="1" style="stop-color:rgb(153,153,153)"/>
  		</linearGradient>
   		<linearGradient id="bent-wire-left">
   			<stop offset="0" style="stop-color:rgb(153,153,153)"/>
   			<stop offset="0.1" style="stop-color:rgb(192,192,192)"/>
   			<stop offset="0.15" style="stop-color:rgb(207,207,207)"/>
   			<stop offset="0.75" style="stop-color:rgb(243,243,243)"/>
   			<stop offset="0.9" style="stop-color:rgb(198,198,198)"/>
   			<stop offset="1" style="stop-color:rgb(153,153,153)"/>
   		</linearGradient>
    </defs>
</svg>
